# xmcd
#
# Track frame offsets:
#	150
#	11362
#	27510
#	37815
#	49380
#	62050
#	74617
#	85652
#	97870
#	108205
#	117312
#	130282
#	140587
#	152945
#	165050
#	175152
#	185347
#
# Disc length: 2607 seconds
# Revision: 0
# Processed by: cddbd v1.5.2PL0 Copyright (c) Steve Scherf et al.
# Submitted via: dBpowerAMP V12.0
#
DISCID=d90a2d11
DTITLE=Howard Tate - Get it While You Can - The Legendary Sessions
DYEAR=1995
DGENRE=Soul
TTITLE0=Ain't Nobody Home
TTITLE1=Part-Time Love
TTITLE2=Glad I Knew Better
TTITLE3=How Blue Can You Get
TTITLE4=Stop
TTITLE5=Get it While You Can
TTITLE6=Baby, I Love You
TTITLE7=I Learned it All The Hard Way
TTITLE8=Sweet Love Child
TTITLE9=Everyday I Have The Blues
TTITLE10=How Come my Bulldog Don't Bark
TTITLE11=Look at Granny Run Run
TTITLE12=Half a Man
TTITLE13=Shoot 'em All Down
TTITLE14=Give me Some Courage
TTITLE15=Night Owl
TTITLE16=I'm Your Servant
EXTD=
EXTT0=
EXTT1=
EXTT2=
EXTT3=
EXTT4=
EXTT5=
EXTT6=
EXTT7=
EXTT8=
EXTT9=
EXTT10=
EXTT11=
EXTT12=
EXTT13=
EXTT14=
EXTT15=
EXTT16=
PLAYORDER=
